<svg xmlns="http://www.w3.org/2000/svg" viewBox="0 0 2662 1024"><path d="M71.116971 876.288c0-48.930133 39.799467-88.610133 88.8832-88.610133h283.835733l35.549867-59.067734H148.155904a148.224 148.224 0 0 0-118.510933 59.0848A146.722133 146.722133 0 0 0 0.000171 876.270933a146.688 146.688 0 0 0 29.6448 88.610134A148.138667 148.138667 0 0 0 148.138837 1024h295.697067l35.549867-59.067733H160.000171a88.8832 88.8832 0 0 1-83.797334-59.067734 88.285867 88.285867 0 0 1-5.085866-29.525333v-0.034133zM2115.771904 817.220267c0-48.9472-39.799467-88.610133-88.8832-88.610134H1636.386304l35.549867 59.0848H2026.888704c16.366933 0 29.627733 13.2096 29.627733 29.525334s-13.2608 29.525333-29.627733 29.525333H1636.386304V1024h71.099733v-118.1696h262.826667l68.437333 118.1696h77.021867l-69.632-120.2688a88.6784 88.6784 0 0 0 69.632-86.510933M2561.809237 728.610133l-168.823466 129.501867-168.823467-129.501867h-104.277333l231.0144 177.220267V1024h80.469333v-118.152533L2662.400171 728.610133zM1162.154837 816.4864a29.576533 29.576533 0 0 1 29.576534-28.808533h343.159466l35.566934-59.067734H1179.938304c-49.083733 0-88.900267 39.68-88.900267 88.610134v206.762666h443.8528l35.566934-59.067733H1162.154837V905.847467H1463.774037l35.566934-59.0848H1162.154837v-30.276267zM1913.514837 352.9728c-37.444267 16.930133-81.2032 12.151467-114.500266-11.895467l-43.946667-31.744L1459.200171 95.761067l-0.989867-0.699734-0.887467-0.648533-2.082133-1.450667c-12.151467-8.448-49.698133-33.8432-77.4656-44.936533-0.119467 0.0512-0.221867 0.136533-0.341333 0.2048a85.230933 85.230933 0 0 0-6.656-2.7648c-0.187733-0.068267-0.341333-0.1536-0.529067-0.187733a111.957333 111.957333 0 0 0-21.76-5.666134c11.298133 0.068267 22.4768 0.221867 33.621333 0.477867h0.017067l7.389867 0.1536c185.088 4.5056 349.525333 30.327467 464.657066 69.0688h0.0512c106.069333 35.669333 170.308267 82.346667 170.308267 133.358933 0 40.669867-40.789333 78.5408-111.035733 110.301867zM1611.093504 428.509867c-85.6064 11.093333-180.309333 17.2544-279.876267 17.2544-99.584 0-194.269867-6.144-279.876266-17.237334-78.199467-14.08-40.533333-66.935467-20.053334-89.634133a3.7376 3.7376 0 0 1 0.648534-0.6656c4.949333-5.4784 8.789333-9.079467 9.472-9.693867 0.085333-0.0512 0.1024-0.1024 0.1024-0.1024a2258.944 2258.944 0 0 1 40.721066-40.1408 2332.296533 2332.296533 0 0 1 138.069334-122.9824c14.216533-11.690667 28.433067-23.0912 42.5984-34.133333l0.1024-0.068267a85.538133 85.538133 0 0 1 4.6592-3.601066c10.888533-8.072533 38.536533-26.5216 63.556266-26.453334 25.002667-0.068267 52.650667 18.3808 63.522134 26.453334 0.5632 0.375467 1.041067 0.750933 1.501866 1.1264l1.245867 0.938666c0.5632 0.4096 1.024 0.785067 1.314133 1.041067l0.494934 0.392533 0.221866 0.170667a2231.466667 2231.466667 0 0 1 42.632534 34.133333 2341.461333 2341.461333 0 0 1 138.018133 122.9824 2209.928533 2209.928533 0 0 1 40.840533 40.2432l0.3584 0.375467c1.262933 1.1264 4.676267 4.437333 8.96 9.1136l0.0512 0.0512c20.309333 22.2208 59.818667 76.1856-19.285333 90.453333zM863.402837 341.077333c-33.28 24.046933-77.038933 28.8256-114.466133 11.895467-70.2464-31.744-111.0528-69.632-111.0528-110.301867 0-51.012267 64.256-97.6896 170.325333-133.358933C923.306837 70.587733 1087.812437 44.7488 1272.900437 40.2432l7.406934-0.1536c11.178667-0.256 22.357333-0.4096 33.655466-0.477867-7.5776 1.160533-14.830933 3.072-21.794133 5.666134-0.068267 0.034133-0.2048 0.034133-0.256 0.068266a107.229867 107.229867 0 0 0-6.929067 2.901334 4.096 4.096 0 0 0-0.341333-0.221867c-27.767467 11.093333-65.3312 36.488533-77.482667 44.936533l-2.048 1.450667-1.911466 1.365333-295.850667 213.5552-43.963733 31.744zM1865.386837 67.959467C1751.483904 33.9968 1608.055637 10.683733 1449.455104 2.901333A2393.053867 2393.053867 0 0 0 1335.859371 0h-9.301334c-38.570667 0.068267-76.458667 1.041067-113.5616 2.901333-158.651733 7.7824-302.08 31.061333-416 65.058134-163.157333 48.674133-265.762133 119.296-265.762133 197.888 0 66.56 73.642667 127.453867 195.259733 174.08 49.373867 18.909867 106.666667 35.5328 170.205867 49.169066 51.643733 11.144533 107.451733 20.3776 166.4512 27.306667 83.797333 9.898667 174.045867 15.325867 268.066133 15.325867 94.0032 0 184.234667-5.410133 268.032-15.325867a1776.298667 1776.298667 0 0 0 166.468267-27.306667c63.522133-13.653333 120.832-30.2592 170.205867-49.169066 121.634133-46.626133 195.242667-107.52 195.242666-174.08 0-78.574933-102.621867-149.213867-265.762133-197.888zM953.617237 728.610133v118.152534H616.448171v-118.152534h-71.1168V1024h71.1168v-118.1696h337.169066V1024h71.1168V728.610133z"></path></svg>